# xmcd CD database file
#
# Track frame offsets:
#	150
#	15812
#	51937
#	75471
#	85554
#	115382
#	127099
#	148235
#	184947
#
# Disc length: 2705 seconds
#
# Revision: 2
# Processed by: cddbd v1.5.1PL2 Copyright (c) Steve Scherf et al.
# Submitted via: CDex 1.51
#
DISCID=700a8f09
DTITLE=Daddy Deep - Professorship
DYEAR=1998
DGENRE=Jazz
TTITLE0=Sexy M. F. Bass Freakout
TTITLE1=Seija People's Paradise
TTITLE2=Miles Anywhere
TTITLE3=Nerves
TTITLE4=New Christian's Journey
TTITLE5=Cuban Moon
TTITLE6=The Mellow Jazz Hop
TTITLE7=In The Still Of The Night
TTITLE8=Talking Deep
EXTD=YEAR: 1998
EXTT0=
EXTT1=
EXTT2=
EXTT3=
EXTT4=
EXTT5=
EXTT6=
EXTT7=
EXTT8=
PLAYORDER=
